<svg width="109" height="77" viewBox="0 0 109 77" fill="none" xmlns="http://www.w3.org/2000/svg">
<path d="M55.0564 1.02051C66.7331 1.02051 78.4097 1.00508 90.0863 1.02566C101.277 1.04623 108.964 8.84994 108.964 20.1671C108.969 33.0275 109.046 45.888 108.939 58.7433C108.836 71.0687 96.4898 80.1122 85.3246 75.9402C82.706 74.9628 80.2049 73.1572 78.1795 71.1819C73.4076 66.5367 69.0039 61.516 64.3343 56.7576C63.5467 55.9551 62.2066 55.3224 61.0968 55.2761C57.0153 55.1012 52.9134 55.1166 48.8268 55.2709C47.7834 55.3121 46.5252 55.8831 45.7887 56.6342C41.1293 61.3977 36.5773 66.2692 32.0049 71.1201C26.8954 76.5421 19.6071 78.3991 13.0962 75.9042C6.18125 73.255 1.13313 66.4389 1.07176 59.1651C0.96435 45.6205 0.949006 32.0759 1.07176 18.5313C1.1587 8.94768 9.24489 1.10796 18.9882 1.04109C31.0229 0.958784 43.0422 1.02051 55.0564 1.02051ZM94.6076 29.905C94.577 21.9316 87.9842 15.3573 80.0668 15.4139C72.2977 15.4705 65.7408 22.0808 65.7306 29.8742C65.7204 37.8168 72.2977 44.4888 80.164 44.5042C88.0456 44.5299 94.6383 37.8579 94.6076 29.905ZM26.1742 26.2475C23.7192 26.2475 21.6785 26.2012 19.6429 26.2578C17.193 26.3247 15.5103 27.7959 15.4336 29.833C15.3517 31.9884 17.0549 33.5677 19.6531 33.6449C21.7501 33.7066 23.8471 33.6551 26.1742 33.6551C26.1742 36.1141 26.1282 38.2386 26.1845 40.3631C26.251 42.786 27.816 44.4939 29.8465 44.4939C31.8873 44.4888 33.3807 42.8272 33.4574 40.3426C33.5188 38.2232 33.4728 36.0986 33.4728 33.6603C35.7795 33.6603 37.7997 33.6911 39.82 33.6551C42.6177 33.5986 44.3567 32.0759 44.2697 29.8176C44.1879 27.6879 42.4745 26.299 39.7944 26.2578C37.7793 26.227 35.759 26.2527 33.4779 26.2527C33.4779 23.8246 33.5239 21.7001 33.4677 19.5807C33.3961 17.0961 31.8975 15.4345 29.8465 15.4396C27.816 15.4448 26.2714 17.1423 26.1947 19.5807C26.1231 21.6949 26.1742 23.8195 26.1742 26.2475Z" fill="white"/>
<path d="M80.2816 37.0812C76.195 37.1223 73.1263 34.113 73.0854 30.0388C73.0445 25.9801 76.0928 22.837 80.1077 22.7855C84.0613 22.7341 87.2937 25.8875 87.3551 29.8588C87.4216 33.8146 84.2608 37.04 80.2816 37.0812Z" fill="white"/>
</svg>
