<svg width="30" height="30" viewBox="0 0 30 30" fill="none" xmlns="http://www.w3.org/2000/svg">
<path fill-rule="evenodd" clip-rule="evenodd" d="M7.1515 0.0886176C3.47325 0.598271 0.585709 3.50974 0.0878563 7.20619C-0.0292854 8.11419 -0.0292854 21.8807 0.0878563 22.7887C0.333854 24.6164 1.14213 26.2567 2.44241 27.5572C3.73682 28.8518 5.38266 29.6661 7.21007 29.9121C8.11792 30.0293 21.8821 30.0293 22.7899 29.9121C26.515 29.4083 29.4084 26.5144 29.9121 22.7887C30.0293 21.8807 30.0293 8.11419 29.9121 7.20619C29.4084 3.48045 26.515 0.586555 22.7899 0.0827595C21.9231 -0.0285441 7.99492 -0.0285441 7.1515 0.0886176ZM22.1574 2.69547C23.5865 2.8302 24.7638 3.38672 25.7243 4.37674C26.6615 5.34332 27.1652 6.4505 27.2999 7.83886C27.376 8.68243 27.376 21.3125 27.2999 22.156C27.1652 23.5444 26.6615 24.6516 25.7243 25.6182C24.7638 26.6082 23.5865 27.1647 22.1574 27.2994C21.3139 27.3756 8.68606 27.3756 7.84264 27.2994C6.41351 27.1647 5.23624 26.6082 4.27567 25.6182C3.33854 24.6516 2.83483 23.5444 2.70012 22.156C2.62397 21.3125 2.62397 8.68243 2.70012 7.83886C2.83483 6.40949 3.39125 5.23202 4.3811 4.27129C5.31238 3.36329 6.46622 2.82434 7.73721 2.70132C8.48106 2.63103 21.4018 2.62517 22.1574 2.69547Z" fill="white"/>
<path fill-rule="evenodd" clip-rule="evenodd" d="M22.3391 5.16181C21.8998 5.3317 21.4957 5.71833 21.2966 6.16354C20.7284 7.40546 21.5894 8.81726 22.9599 8.89341C23.6218 8.92856 24.2953 8.59465 24.6585 8.04399C24.8986 7.68665 24.9806 7.38203 24.9747 6.8958C24.963 5.59531 23.5808 4.68145 22.3391 5.16181Z" fill="white"/>
<path fill-rule="evenodd" clip-rule="evenodd" d="M13.9459 7.35274C12.2474 7.59292 10.7714 8.33104 9.55313 9.54952C8.24115 10.8559 7.51487 12.4083 7.32159 14.3122C7.1283 16.134 7.70815 18.1668 8.84442 19.6547C9.18413 20.1058 9.89284 20.8146 10.3438 21.1544C11.8315 22.2909 13.8639 22.8708 15.6913 22.6775C17.589 22.4842 19.1411 21.7578 20.4473 20.4456C21.7592 19.1392 22.4855 17.5868 22.6788 15.6888C22.8369 14.1833 22.4738 12.5079 21.6948 11.1605C20.1251 8.43063 17.0502 6.91924 13.9459 7.35274ZM16.1716 10.0768C17.9931 10.5161 19.4808 12.0041 19.9201 13.8259C20.0783 14.5055 20.0783 15.4896 19.9201 16.1692C19.5746 17.622 18.5554 18.8815 17.2083 19.5376C16.4703 19.8949 15.8436 20.0355 15.0002 20.0355C14.1568 20.0355 13.5301 19.8949 12.7921 19.5376C11.445 18.8815 10.4258 17.622 10.0803 16.1692C9.92212 15.4896 9.92212 14.5055 10.0803 13.8259C10.5137 12.0216 11.9955 10.522 13.7995 10.0826C14.4555 9.91858 15.5039 9.91858 16.1716 10.0768Z" fill="white"/>
</svg>
