<svg width="60" height="70" viewBox="0 0 60 70" fill="none" xmlns="http://www.w3.org/2000/svg">
<path d="M59.1837 0C59.1837 16.077 59.0886 32.1539 59.2615 48.228C59.2989 51.8086 58.282 54.5251 55.4388 56.5185C52.2787 58.7366 48.8018 59.7045 44.9734 58.5004C41.1652 57.3021 39.6471 53.7992 41.5454 50.3021C43.5849 46.5486 46.9726 44.7683 51.1322 44.365C52.1261 44.27 53.1343 44.3506 54.2347 44.3506C54.2347 34.3576 54.2347 24.3041 54.2347 14.1642C48.8104 15.714 43.438 17.2407 38.0685 18.7848C33.2001 20.1848 28.3434 21.6337 23.4606 22.979C22.4812 23.2498 22.1874 23.6444 22.1903 24.6412C22.2335 36.063 22.2364 47.4848 22.2335 58.9037C22.2335 62.6226 20.2804 65.3391 17.2931 67.1539C15.2162 68.4128 12.7763 69.0724 10.5006 70C9.34829 70 8.19603 70 7.04377 70C6.77874 69.9078 6.52237 69.784 6.25158 69.7321C0.37216 68.577 -1.81138 63.1728 1.65981 58.2901C3.56681 55.6111 6.2199 53.9663 9.32237 53.007C11.9639 52.1918 14.6372 52.2004 17.4199 52.958C17.4199 38.3819 17.4199 24.0045 17.4199 9.607C27.6981 7.25062 37.8956 4.9288 48.0816 2.57243C51.6018 1.7572 55.0989 0.858436 58.6076 0C58.7977 0 58.9907 0 59.1837 0Z" fill="white"/>
</svg>
