<svg width="81" height="63" viewBox="0 0 81 63" fill="none" xmlns="http://www.w3.org/2000/svg">
<path d="M58.8205 22.4243C66.0186 22.4243 72.9946 22.4243 79.9706 22.4243C80.2109 22.4243 80.453 22.4243 80.8444 22.4243C80.8444 22.7775 80.8444 23.0942 80.8444 23.411C80.8444 34.9691 80.8462 46.5271 80.8425 58.087C80.8425 61.0489 78.9056 62.9986 75.9637 62.9986C52.2705 63.0004 28.5773 63.0004 4.88414 62.9986C2.02057 62.9986 0.0235333 61.0653 0.0217128 58.2545C0.0126105 46.5744 0.0180719 34.8944 0.0198923 23.2144C0.0198923 22.9795 0.0417379 22.7465 0.0563015 22.4698C7.3545 22.4698 14.5944 22.4698 21.9946 22.4698C18.6122 27.8438 17.367 33.5964 18.7833 39.7678C20.1942 45.9136 23.633 50.6759 29.0416 53.9345C37.1171 58.8006 47.4864 57.9941 54.5898 51.9994C58.9352 48.333 61.5803 43.6781 62.405 38.0584C63.226 32.4714 61.9408 27.305 58.8205 22.4243Z" fill="white"/>
<path d="M0.030678 18.9746C0.030678 16.1165 -0.053063 13.3239 0.0561642 10.5404C0.149007 8.18841 2.14969 6.40073 4.51627 6.35886C6.486 6.32427 8.45756 6.3352 10.4291 6.32427C10.4546 6.32427 10.4783 6.2915 10.6039 6.20412C10.6348 5.54329 10.6694 4.8042 10.7058 4.02868C13.5767 4.02868 16.3874 4.02868 19.302 4.02868C19.302 4.78235 19.302 5.52327 19.302 6.3534C21.188 6.3534 22.9702 6.3534 24.7506 6.3534C26.1159 6.3534 27.4831 6.39163 28.8448 6.3261C29.1725 6.30971 29.6221 6.02571 29.7787 5.73626C30.7035 4.03596 31.5354 2.28468 32.4548 0.580739C32.5986 0.313132 33.0227 0.0382457 33.3177 0.0364252C38.049 0.0018366 42.7804 0.0218594 47.5117 1.3921e-05C48.0196 -0.00180653 48.2454 0.174777 48.4584 0.613506C49.294 2.32837 50.1569 4.02868 51.0598 5.70896C51.2109 5.99113 51.6041 6.32609 51.8899 6.32791C55.8021 6.36432 59.7142 6.34612 63.6282 6.33884C63.6846 6.33884 63.7393 6.30607 63.8922 6.25692C63.8922 5.15372 63.8922 4.01776 63.8922 2.81262C65.2065 2.81262 66.4262 2.81262 67.7297 2.81262C67.7297 3.96678 67.7297 5.10639 67.7297 6.35522C68.9221 6.35522 70.0344 6.35522 71.1467 6.35522C72.8761 6.35522 74.6055 6.3352 76.3332 6.35886C78.6997 6.39345 80.7132 8.18113 80.8042 10.5295C80.9134 13.313 80.8297 16.1056 80.8297 18.991C80.4838 19.0092 80.1634 19.042 79.843 19.042C72.1388 19.0438 64.4347 19.0529 56.7305 19.0201C56.2736 19.0183 55.7165 18.8017 55.3779 18.4958C46.7999 10.7462 34.0568 10.768 25.4278 18.5559C25.162 18.7962 24.7561 19.0219 24.4156 19.0219C16.4384 19.0474 8.4612 19.0401 0.483971 19.0365C0.367462 19.0365 0.250953 19.0055 0.030678 18.9746Z" fill="white"/>
<path d="M40.3881 51.1947C31.3168 51.1947 24.1278 43.942 24.1296 34.7924C24.1315 25.8831 31.4661 18.5886 40.43 18.5795C49.4813 18.5722 56.7412 25.9104 56.734 35.0637C56.7249 43.9875 49.423 51.1965 40.3881 51.1947Z" fill="white"/>
</svg>
