<svg width="59" height="70" viewBox="0 0 59 70" fill="none" xmlns="http://www.w3.org/2000/svg">
<path d="M26.7265 70C26.3877 67.2735 26.0714 64.7207 25.7551 62.168C25.4701 59.8707 25.1991 57.5699 24.9002 55.2744C24.7229 53.9102 23.8176 53.2864 22.5021 53.6496C20.634 54.1657 18.7816 54.7339 16.9222 55.2744C15.9543 55.5559 15.3982 56.2458 14.9742 57.1181C13.3946 60.366 11.7941 63.6034 10.1971 66.8425C10.1102 67.018 9.99204 67.1779 9.82001 67.4577C9.08494 65.9372 8.34987 64.5331 7.73818 63.0786C7.5731 62.6841 7.68779 62.1054 7.82681 61.6606C8.43676 59.7056 9.07451 57.7559 9.76092 55.827C10.0807 54.9268 9.66882 54.5966 8.91638 54.3186C7.0483 53.6287 5.20455 52.8728 3.33995 52.1794C2.6101 51.9083 2.13917 51.4426 1.81942 50.7406C1.26856 49.5363 0.663819 48.3564 0 46.9992C1.50489 47.3329 2.84991 47.6213 4.18797 47.9324C6.27327 48.4155 8.3603 48.8899 10.4352 49.4164C11.5352 49.6962 12.4788 49.4859 13.372 48.8152C14.9464 47.6352 16.5433 46.4848 18.1247 45.3136C19.5062 44.2883 19.5375 43.1849 18.2064 42.0449C15.0193 39.3166 11.8219 36.5953 8.63139 33.8723C8.45935 33.7246 8.29426 33.5682 7.96583 33.2693C9.36472 32.675 10.6124 31.9868 11.9487 31.6393C12.6838 31.4481 13.6344 31.674 14.3764 31.9816C19.0301 33.8983 23.6629 35.8707 28.2818 37.8726C29.7172 38.4947 31.0553 38.4843 32.4489 37.7909C36.9549 35.5457 41.4887 33.3527 45.986 31.0884C48.2068 29.971 50.4051 29.9015 52.678 30.8729C54.3567 31.5906 55.1891 33.172 54.7755 34.9618C54.2281 37.3304 52.9109 39.089 50.704 40.1699C46.158 42.3959 41.626 44.655 37.0731 46.8654C35.5491 47.6057 34.6402 48.7074 34.357 50.4087C33.535 55.3439 32.6245 60.2652 31.8112 65.2038C31.521 66.9624 30.666 68.1841 29.0308 68.8879C28.2905 69.2007 27.5815 69.583 26.7265 70Z" fill="white"/>
<path d="M57.4604 33.1042C56.9565 32.1658 56.4421 31.243 55.9729 30.2994C55.8721 30.0961 55.8878 29.8077 55.9191 29.5661C56.0615 28.4852 56.2284 27.4061 56.3969 26.2488C54.1483 26.2488 52.0508 26.2488 49.9099 26.2488C49.8491 26.7353 49.7935 27.1854 49.7344 27.6598C48.9524 27.7484 48.2104 27.8318 47.3867 27.9239C47.3867 27.3574 47.3867 26.8292 47.3867 26.2175C43.2387 26.2175 39.1672 26.2175 34.9757 26.2175C34.9757 27.6668 34.9757 29.017 34.9757 30.3655C34.9757 30.8868 34.9757 31.4081 34.9757 31.9294C34.9757 34.0408 34.8037 34.2546 32.5603 34.8767C32.5603 32.0389 32.5603 29.2151 32.5603 26.2574C28.3619 26.2574 24.2173 26.2574 19.9164 26.2574C20.0537 28.0977 20.1893 29.898 20.3335 31.8234C19.548 31.4898 18.8216 31.2204 18.1387 30.8677C17.9458 30.7669 17.7964 30.4263 17.7738 30.183C17.6852 29.2047 17.6817 28.2194 17.5913 27.2427C17.5514 26.8118 17.7321 26.174 16.9327 26.1758C15.089 26.1792 13.2452 26.1775 11.2694 26.1775C11.3684 27.2375 11.4553 28.1672 11.5422 29.0969C10.7672 29.375 10.0408 29.6339 9.31269 29.8945C7.42376 21.5742 10.3397 10.5951 19.9442 4.19328C29.1352 -1.93402 41.256 -1.28062 49.724 5.7225C58.6908 13.1392 60.5484 24.6309 57.4604 33.1042ZM32.4751 11.2555C32.3448 11.2225 32.2649 11.1808 32.1849 11.1825C28.7007 11.2711 25.2756 11.7907 21.9096 12.6717C21.6611 12.736 21.3848 13.1079 21.3153 13.386C20.6098 16.2133 20.0971 19.0719 19.9946 21.9948C19.9321 23.7586 19.9269 23.7568 21.6576 23.7516C21.7445 23.7516 21.8314 23.7551 21.9183 23.7551C24.5458 23.7812 27.175 23.8211 29.8025 23.8263C30.687 23.8281 31.5698 23.7481 32.4751 23.7047C32.4751 19.5011 32.4751 15.3792 32.4751 11.2555ZM34.974 11.08C34.974 11.5857 34.9757 11.9228 34.974 12.2616C34.9497 15.8431 34.9427 19.4246 34.8836 23.0061C34.8715 23.7603 35.1947 23.8524 35.822 23.8402C37.8448 23.7968 39.8675 23.7985 41.8902 23.7898C43.7027 23.7829 45.5169 23.7881 47.3103 23.7881C47.3641 23.5639 47.4024 23.4823 47.4006 23.4023C47.3085 19.9494 46.8602 16.5417 46.0191 13.1931C45.9461 12.8994 45.5273 12.5553 45.2128 12.4841C43.6627 12.133 42.104 11.7959 40.5296 11.5874C38.7362 11.3476 36.922 11.2503 34.974 11.08ZM48.7578 13.3634C49.1888 16.9084 49.5989 20.2744 50.0159 23.6995C52.0456 23.6995 54.1379 23.6995 56.2301 23.6995C56.2666 23.5657 56.3135 23.4823 56.3083 23.4058C56.1241 20.8148 55.5194 18.3281 54.4541 15.9578C54.3777 15.7858 54.2317 15.5877 54.0701 15.5216C52.3202 14.7935 50.5633 14.0915 48.7578 13.3634ZM32.5255 2.53721C32.1988 2.53721 31.9642 2.49724 31.7505 2.54416C29.8911 2.95079 28.0352 3.3748 26.1775 3.78838C24.8499 4.0838 24.0331 4.85536 23.6369 6.18647C23.2633 7.43939 22.7333 8.64538 22.2989 9.79925C25.644 9.44127 28.8815 9.10067 32.1154 8.72706C32.2701 8.70968 32.5064 8.39515 32.5099 8.21616C32.5359 6.36546 32.5255 4.5165 32.5255 2.53721ZM45.1502 9.90178C44.8618 9.07982 44.6689 8.44728 44.4204 7.83559C42.74 3.68412 43.9425 4.54604 39.1932 3.13325C37.883 2.744 36.4858 2.64495 34.9757 2.38776C34.9757 4.37227 34.9966 6.15867 34.9636 7.94333C34.9531 8.5446 35.153 8.72532 35.7508 8.76876C37.7683 8.913 39.7858 9.09894 41.7964 9.32658C42.8477 9.44301 43.8886 9.67934 45.1502 9.90178ZM11.146 23.7898C13.1149 23.7898 14.8422 23.7534 16.5643 23.8072C17.348 23.8316 17.5096 23.5205 17.567 22.8063C17.7425 20.6237 17.991 18.4463 18.2447 16.2706C18.3438 15.4243 18.5314 14.5867 18.7104 13.5702C17.6747 13.9542 16.785 14.26 15.9127 14.6128C12.8959 15.8327 12.8612 15.8292 12.067 18.9832C11.6847 20.5038 11.471 22.0677 11.146 23.7898ZM46.6638 6.7217C47.0444 7.9277 47.4215 9.13543 47.8107 10.3397C47.8507 10.4648 47.948 10.6299 48.0557 10.6664C49.3538 11.0991 50.6572 11.5109 51.9605 11.9297C50.5876 9.75754 48.8499 8.02848 46.6638 6.7217ZM15.3322 11.7646C15.4104 11.8689 15.4869 11.9732 15.5651 12.0792C16.4583 11.7803 17.3376 11.4154 18.2499 11.1981C19.164 10.9792 19.6558 10.5117 19.8573 9.57855C20.0572 8.65581 20.4238 7.76956 20.7158 6.86767C20.6133 6.79642 20.5107 6.72518 20.4082 6.65393C18.7156 8.35692 17.0231 10.0616 15.3322 11.7646Z" fill="white"/>
</svg>
