<svg width="36" height="30" viewBox="0 0 36 30" fill="none" xmlns="http://www.w3.org/2000/svg">
<path d="M0 26.6354C3.83048 26.9037 7.31597 25.962 10.5472 23.5129C7.27329 23.1042 4.97571 21.5128 3.76113 18.3155C4.80144 18.2425 5.80085 18.509 6.74157 18.0783C2.91287 16.3884 0.935391 13.7642 1.20392 10.6855C2.14998 10.9611 3.0338 11.5104 4.21993 11.3753C3.7629 10.9191 3.37168 10.5632 3.02135 10.169C1.11856 8.02839 0.650862 4.69607 1.84589 2.09189C2.09307 1.55536 2.25312 1.46046 2.6728 1.95502C6.14406 6.03374 10.5383 8.36966 15.7327 9.1708C15.7914 9.17993 15.8501 9.18723 15.9088 9.19453C17.3172 9.35512 17.3118 9.35512 17.2852 7.92985C17.2229 4.62307 18.6153 2.15029 21.5318 0.774288C24.4286 -0.592586 27.1868 -0.134528 29.6142 2.02802C29.945 2.32183 30.2153 2.39665 30.6314 2.29628C31.9616 1.97874 33.2028 1.42396 34.6344 0.701291C34.1471 2.45505 33.1032 3.54089 31.766 4.67599C33.201 4.57562 34.3143 4.12669 35.6498 3.65586C34.8104 5.02273 33.8768 6.03557 32.7903 6.87321C32.191 7.33492 32.054 7.83313 32.054 8.5558C32.0576 17.3739 26.511 25.6956 18.6402 28.5881C12.4962 30.8455 6.50861 30.4021 0.745112 27.2139C0.478365 27.0661 0.124482 26.9858 0 26.6354Z" fill="white"/>
</svg>
