<svg width="42" height="30" viewBox="0 0 42 30" fill="none" xmlns="http://www.w3.org/2000/svg">
<path d="M16.1643 0.00767016C18.022 0.00767016 19.8803 -0.0125839 21.7375 0.0127337C24.3814 0.0487408 27.0259 0.097688 29.6687 0.181517C31.22 0.230464 32.7707 0.33736 34.3186 0.459447C35.3741 0.542714 36.439 0.623167 37.4589 0.932603C39.4838 1.54697 40.7147 2.94506 41.2077 5.00535C41.5414 6.39781 41.6658 7.82347 41.7768 9.25025C41.9634 11.6436 42.03 14.0398 41.9878 16.4387C41.9589 18.0776 41.8723 19.7137 41.7252 21.3464C41.6103 22.6224 41.4698 23.8939 41.1689 25.1401C40.6692 27.2094 39.3905 28.5383 37.379 29.1228C36.5001 29.3782 35.5834 29.4463 34.6745 29.5296C33.5241 29.6353 32.3721 29.7147 31.2178 29.7676C29.5271 29.8452 27.8365 29.9026 26.1448 29.9448C24.7112 29.9802 23.2782 29.9847 21.8452 29.9954C19.0719 30.0162 16.2997 29.9645 13.5281 29.8733C12.1234 29.8272 10.7182 29.7771 9.3157 29.6888C7.87936 29.5982 6.43636 29.5183 5.02501 29.219C2.77417 28.7414 1.37892 27.3258 0.808158 25.0827C0.526664 23.9772 0.407293 22.8418 0.300692 21.7065C0.0952632 19.5224 0.0230854 17.3333 0.00198724 15.1402C-0.0113379 13.7438 0.0441835 12.3502 0.113585 10.9566C0.166331 9.90007 0.239619 8.84517 0.358434 7.79421C0.496127 6.57897 0.602173 5.34798 1.03913 4.20081C1.75979 2.31213 3.15338 1.18522 5.10995 0.790263C6.4247 0.525273 7.76332 0.441443 9.09805 0.352551C11.4505 0.196145 13.8074 0.123568 16.1643 0.00767016ZM16.7306 21.3284C20.39 19.2203 24.0216 17.1274 27.6872 15.0159C24.0083 12.8965 20.3794 10.8059 16.7306 8.70395C16.7306 12.9264 16.7306 17.1088 16.7306 21.3284Z" fill="white"/>
</svg>
